<svg viewBox="0 0 24 24" focusable="false" class="chakra-icon icon-arrow-left css-1581e99" xmlns="http://www.w3.org/2000/svg" style="touch-action: pan-y;"><path fill-rule="evenodd" clip-rule="evenodd" d="M2.25 12C2.25 11.5858 2.58579 11.25 3 11.25L21 11.25C21.4142 11.25 21.75 11.5858 21.75 12C21.75 12.4142 21.4142 12.75 21 12.75L3 12.75C2.58579 12.75 2.25 12.4142 2.25 12Z" fill="currentColor" style="touch-action: pan-y;"></path><path fill-rule="evenodd" clip-rule="evenodd" d="M8.53033 6.46967C8.82322 6.76256 8.82322 7.23744 8.53033 7.53033L4.06066 12L8.53033 16.4697C8.82322 16.7626 8.82322 17.2374 8.53033 17.5303C8.23744 17.8232 7.76256 17.8232 7.46967 17.5303L2.46967 12.5303C2.17678 12.2374 2.17678 11.7626 2.46967 11.4697L7.46967 6.46967C7.76256 6.17678 8.23744 6.17678 8.53033 6.46967Z" fill="currentColor" style="touch-action: pan-y;"></path></svg>