<svg viewBox="0 0 932 190" focusable="false" class="chakra-icon css-h3w1mv" xmlns="http://www.w3.org/2000/svg"><title>Co-funded by the European Union</title><g id="Page-1" stroke="none" stroke-width="1" fill="none" fill-rule="evenodd"><g id="EN_Co-fundedbytheEU_RGB_BLACK" transform="translate(0.000000, 0.214000)" fill="#0A0B09"><path d="M209.586,103.07 L203.602,98.695 L197.625,103.07 L199.899,96.007 L193.821,91.64 L201.313,91.648 L203.602,84.484 L205.899,91.64 L213.391,91.64 L207.313,96.007 L209.586,103.07 Z M201.367,134.179 L195.383,129.804 L189.399,134.179 L191.68,127.116 L185.602,122.749 L193.086,122.757 L195.383,115.593 L197.68,122.749 L205.164,122.749 L199.086,127.116 L201.367,134.179 Z M193.086,60.718 L195.382,53.554 L197.679,60.71 L205.164,60.71 L199.086,65.069 L201.367,72.132 L195.382,67.765 L189.398,72.132 L191.679,65.069 L185.601,60.71 L193.086,60.718 Z M176.477,42.46 L178.75,49.523 L172.774,45.148 L166.782,49.523 L169.055,42.46 L162.985,38.085 L170.477,38.101 L172.766,30.937 L175.055,38.085 L182.555,38.085 L176.477,42.46 Z M178.664,156.882 L172.68,152.515 L166.696,156.882 L168.969,149.819 L162.899,145.452 L170.383,145.46 L172.68,138.304 L174.969,145.452 L182.461,145.452 L176.383,149.819 L178.664,156.882 Z M147.73,165.109 L141.75,160.742 L135.766,165.109 L138.039,158.046 L131.965,153.679 L139.457,153.687 L141.746,146.523 L144.039,153.679 L151.531,153.679 L145.453,158.046 L147.73,165.109 Z M139.449,29.773 L141.742,22.617 L144.035,29.765 L151.528,29.765 L145.449,34.132 L147.727,41.195 L141.742,36.828 L135.758,41.195 L138.035,34.132 L131.961,29.765 L139.449,29.773 Z M116.8,156.882 L110.82,152.515 L104.836,156.882 L107.109,149.819 L101.035,145.452 L108.527,145.46 L110.816,138.304 L113.109,145.452 L120.601,145.452 L114.527,149.819 L116.8,156.882 Z M108.477,38.093 L110.77,30.929 L113.062,38.085 L120.555,38.085 L114.48,42.452 L116.754,49.515 L110.773,45.148 L104.789,49.515 L107.062,42.452 L100.988,38.085 L108.477,38.093 Z M91.82,65.163 L94.097,72.226 L88.113,67.859 L82.129,72.226 L84.406,65.163 L78.332,60.796 L85.82,60.804 L88.113,53.64 L90.406,60.796 L97.894,60.796 L91.82,65.163 Z M94.097,134.179 L88.113,129.804 L82.129,134.179 L84.406,127.116 L78.332,122.749 L85.82,122.757 L88.113,115.593 L90.406,122.749 L97.894,122.749 L91.82,127.116 L94.097,134.179 Z M70.016,91.726 L77.508,91.742 L79.801,84.57 L82.094,91.726 L89.582,91.726 L83.508,96.094 L85.782,103.156 L79.801,98.789 L73.817,103.156 L76.094,96.094 L70.016,91.726 Z M0,189.07 L283.602,189.07 L283.602,0 L0,0 L0,189.07 Z" id="Fill-1"></path><g id="Co-funded-by" transform="translate(322.914613, 12.230135)" fill-rule="nonzero"><path d="M31.4208984,30.2148438 L40.5297852,33.1030273 C39.1333008,38.1811523 36.8111165,41.9527181 33.5632324,44.4177246 C30.3153483,46.8827311 26.1946615,48.1152344 21.2011719,48.1152344 C15.0227865,48.1152344 9.94466146,46.0046387 5.96679687,41.7834473 C1.98893229,37.5622559 0,31.7911784 0,24.4702148 C0,16.7260742 1.99951172,10.7116699 5.99853516,6.42700195 C9.99755859,2.14233398 15.2555339,0 21.7724609,0 C27.4641927,0 32.0874023,1.68212891 35.6420898,5.04638672 C37.7579753,7.03531901 39.3448893,9.89176432 40.402832,13.6157227 L31.1035156,15.8374023 C30.5533854,13.425293 29.4055176,11.5209961 27.6599121,10.1245117 C25.9143066,8.72802734 23.7931315,8.02978516 21.2963867,8.02978516 C17.8474935,8.02978516 15.049235,9.26757812 12.9016113,11.7431641 C10.7539876,14.21875 9.68017578,18.2283529 9.68017578,23.7719727 C9.68017578,29.6541341 10.7381185,33.8435872 12.8540039,36.340332 C14.9698893,38.8370768 17.7205404,40.0854492 21.105957,40.0854492 C23.6027018,40.0854492 25.7503255,39.2919922 27.5488281,37.7050781 C29.3473307,36.1181641 30.6380208,33.6214193 31.4208984,30.2148438 Z" id="Path"></path><path d="M46.4647438,29.9926758 C46.4647438,27.0304362 47.1947242,24.1634115 48.6546852,21.3916016 C50.1146461,18.6197917 52.1829241,16.5039062 54.8595191,15.0439453 C57.5361142,13.5839844 60.5248023,12.8540039 63.8255836,12.8540039 C68.9248674,12.8540039 73.1037411,14.5096842 76.3622047,17.8210449 C79.6206682,21.1324056 81.2499,25.316569 81.2499,30.3735352 C81.2499,35.472819 79.6047991,39.6993001 76.3145973,43.0529785 C73.0243954,46.4066569 68.8825497,48.0834961 63.8890602,48.0834961 C60.7998674,48.0834961 57.853497,47.3852539 55.0499488,45.9887695 C52.2464007,44.5922852 50.1146461,42.545166 48.6546852,39.8474121 C47.1947242,37.1496582 46.4647438,33.8647461 46.4647438,29.9926758 Z M55.6053688,30.46875 C55.6053688,33.811849 56.3988258,36.3720703 57.9857398,38.1494141 C59.5726539,39.9267578 61.5298479,40.8154297 63.8573219,40.8154297 C66.1847958,40.8154297 68.1367001,39.9267578 69.7130348,38.1494141 C71.2893694,36.3720703 72.0775367,33.7906901 72.0775367,30.4052734 C72.0775367,27.1044922 71.2893694,24.5654297 69.7130348,22.7880859 C68.1367001,21.0107422 66.1847958,20.1220703 63.8573219,20.1220703 C61.5298479,20.1220703 59.5726539,21.0107422 57.9857398,22.7880859 C56.3988258,24.5654297 55.6053688,27.125651 55.6053688,30.46875 Z" id="Shape"></path><polygon id="Path" points="87.2165969 34.9121094 87.2165969 25.9936523 104.736128 25.9936523 104.736128 34.9121094"></polygon><path d="M105.973821,13.6157227 L110.924993,13.6157227 L110.924993,11.0766602 C110.924993,8.2413737 111.226507,6.12548828 111.829534,4.72900391 C112.432561,3.33251953 113.543401,2.19523112 115.162054,1.31713867 C116.780706,0.439046224 118.827825,0 121.303411,0 C123.842473,0 126.328639,0.380859375 128.761907,1.14257812 L127.555852,7.36328125 C126.138209,7.02473958 124.773463,6.85546875 123.461614,6.85546875 C122.170924,6.85546875 121.245224,7.15698242 120.684514,7.76000977 C120.123805,8.36303711 119.84345,9.52148438 119.84345,11.2353516 L119.84345,13.6157227 L126.508489,13.6157227 L126.508489,20.6298828 L119.84345,20.6298828 L119.84345,47.3217773 L110.924993,47.3217773 L110.924993,20.6298828 L105.973821,20.6298828 L105.973821,13.6157227 Z" id="Path"></path><path d="M153.708096,47.3217773 L153.708096,42.2753906 C152.480883,44.0738932 150.86752,45.4915365 148.868008,46.5283203 C146.868496,47.5651042 144.757901,48.0834961 142.536221,48.0834961 C140.272224,48.0834961 138.240974,47.586263 136.442471,46.5917969 C134.643968,45.5973307 133.342699,44.2008464 132.538662,42.4023438 C131.734626,40.6038411 131.332608,38.1176758 131.332608,34.9438477 L131.332608,13.6157227 L140.251065,13.6157227 L140.251065,29.1040039 C140.251065,33.8435872 140.415046,36.74764 140.743008,37.8161621 C141.07097,38.8846842 141.668708,39.7310384 142.536221,40.3552246 C143.403734,40.9794108 144.503995,41.2915039 145.837002,41.2915039 C147.36044,41.2915039 148.725186,40.8736165 149.931241,40.0378418 C151.137295,39.2020671 151.962491,38.1652832 152.406827,36.9274902 C152.851162,35.6896973 153.07333,32.6586914 153.07333,27.8344727 L153.07333,13.6157227 L161.991787,13.6157227 L161.991787,47.3217773 L153.708096,47.3217773 Z" id="Path"></path><path d="M201.886707,47.3217773 L192.96825,47.3217773 L192.96825,30.1196289 C192.96825,26.480306 192.77782,24.1263835 192.396961,23.0578613 C192.016102,21.9893392 191.397205,21.1588542 190.540271,20.5664062 C189.683338,19.9739583 188.651844,19.6777344 187.445789,19.6777344 C185.901193,19.6777344 184.515288,20.1009115 183.288074,20.9472656 C182.060861,21.7936198 181.219796,22.9150391 180.764881,24.3115234 C180.309965,25.7080078 180.082508,28.289388 180.082508,32.0556641 L180.082508,47.3217773 L171.164051,47.3217773 L171.164051,13.6157227 L179.447742,13.6157227 L179.447742,18.5668945 C182.388823,14.7583008 186.091622,12.8540039 190.556141,12.8540039 C192.523914,12.8540039 194.322417,13.2084147 195.951648,13.9172363 C197.58088,14.6260579 198.813383,15.530599 199.649158,16.6308594 C200.484933,17.7311198 201.066801,18.9794922 201.394764,20.3759766 C201.722726,21.7724609 201.886707,23.7719727 201.886707,26.3745117 L201.886707,47.3217773 Z" id="Path"></path><path d="M241.845103,47.3217773 L233.561412,47.3217773 L233.561412,42.3706055 C232.186086,44.2960612 230.562144,45.7295736 228.689586,46.6711426 C226.817027,47.6127116 224.928599,48.0834961 223.024302,48.0834961 C219.152232,48.0834961 215.835582,46.5230306 213.074351,43.4020996 C210.313121,40.2811686 208.932505,35.9277344 208.932505,30.3417969 C208.932505,24.6289063 210.276093,20.2860514 212.963267,17.3132324 C215.650442,14.3404134 219.046438,12.8540039 223.151255,12.8540039 C226.917532,12.8540039 230.175995,14.4197591 232.926646,17.5512695 L232.926646,0.793457031 L241.845103,0.793457031 L241.845103,47.3217773 Z M218.041392,29.7387695 C218.041392,33.3357747 218.538625,35.9383138 219.533091,37.5463867 C220.971893,39.8738607 222.981985,41.0375977 225.563365,41.0375977 C227.615774,41.0375977 229.361379,40.1647949 230.800181,38.4191895 C232.238983,36.673584 232.958384,34.0657552 232.958384,30.5957031 C232.958384,26.7236328 232.260142,23.9359538 230.863658,22.232666 C229.467173,20.5293783 227.67925,19.6777344 225.499888,19.6777344 C223.384003,19.6777344 221.611949,20.5187988 220.183726,22.2009277 C218.755504,23.8830566 218.041392,26.3956706 218.041392,29.7387695 Z" id="Shape"></path><path d="M270.15555,36.5942383 L279.042269,38.0859375 C277.899691,41.344401 276.095898,43.8252767 273.630892,45.5285645 C271.165885,47.2318522 268.081982,48.0834961 264.379183,48.0834961 C258.51818,48.0834961 254.180615,46.1686198 251.366487,42.3388672 C249.144808,39.2708333 248.033968,35.398763 248.033968,30.7226562 C248.033968,25.1367188 249.493929,20.7621257 252.413851,17.598877 C255.333773,14.4356283 259.025993,12.8540039 263.490511,12.8540039 C268.505159,12.8540039 272.461865,14.5096842 275.360628,17.8210449 C278.259391,21.1324056 279.645296,26.2052409 279.518343,33.0395508 L257.174593,33.0395508 C257.23807,35.6844076 257.957471,37.7421061 259.332796,39.2126465 C260.708122,40.6831868 262.421989,41.418457 264.474398,41.418457 C265.870882,41.418457 267.045198,41.0375977 267.997347,40.2758789 C268.949495,39.5141602 269.668896,38.2869466 270.15555,36.5942383 Z M270.663362,27.5805664 C270.599886,24.9991862 269.933382,23.0367025 268.663851,21.6931152 C267.39432,20.349528 265.849723,19.6777344 264.030062,19.6777344 C262.083447,19.6777344 260.475374,20.386556 259.205843,21.8041992 C257.936312,23.2218424 257.312126,25.1472982 257.333284,27.5805664 L270.663362,27.5805664 Z" id="Shape"></path><path d="M317.699395,47.3217773 L309.415704,47.3217773 L309.415704,42.3706055 C308.040378,44.2960612 306.416436,45.7295736 304.543878,46.6711426 C302.671319,47.6127116 300.782891,48.0834961 298.878595,48.0834961 C295.006524,48.0834961 291.689874,46.5230306 288.928643,43.4020996 C286.167413,40.2811686 284.786798,35.9277344 284.786798,30.3417969 C284.786798,24.6289063 286.130385,20.2860514 288.817559,17.3132324 C291.504734,14.3404134 294.90073,12.8540039 299.005548,12.8540039 C302.771824,12.8540039 306.030287,14.4197591 308.780938,17.5512695 L308.780938,0.793457031 L317.699395,0.793457031 L317.699395,47.3217773 Z M293.895684,29.7387695 C293.895684,33.3357747 294.392917,35.9383138 295.387384,37.5463867 C296.826186,39.8738607 298.836277,41.0375977 301.417657,41.0375977 C303.470066,41.0375977 305.215671,40.1647949 306.654473,38.4191895 C308.093276,36.673584 308.812677,34.0657552 308.812677,30.5957031 C308.812677,26.7236328 308.114434,23.9359538 306.71795,22.232666 C305.321466,20.5293783 303.533542,19.6777344 301.35418,19.6777344 C299.238295,19.6777344 297.466241,20.5187988 296.038018,22.2009277 C294.609796,23.8830566 293.895684,26.3956706 293.895684,29.7387695 Z" id="Shape"></path><path d="M344.168922,47.3217773 L344.168922,0.793457031 L353.087379,0.793457031 L353.087379,17.5512695 C355.83803,14.4197591 359.096493,12.8540039 362.86277,12.8540039 C366.967587,12.8540039 370.363583,14.3404134 373.050758,17.3132324 C375.737932,20.2860514 377.08152,24.5548503 377.08152,30.1196289 C377.08152,35.8748372 375.711484,40.3076172 372.971412,43.4179688 C370.23134,46.5283203 366.904111,48.0834961 362.989723,48.0834961 C361.064267,48.0834961 359.16526,47.6021322 357.292701,46.6394043 C355.420143,45.6766764 353.80678,44.2537435 352.452613,42.3706055 L352.452613,47.3217773 L344.168922,47.3217773 Z M353.023902,29.7387695 C353.023902,33.2299805 353.574033,35.8113607 354.674293,37.4829102 C356.218889,39.8527018 358.271298,41.0375977 360.83152,41.0375977 C362.799293,41.0375977 364.476132,40.1965332 365.862037,38.5144043 C367.247942,36.8322754 367.940895,34.1821289 367.940895,30.5639648 C367.940895,26.7130534 367.242652,23.9359538 365.846168,22.232666 C364.449684,20.5293783 362.66176,19.6777344 360.482398,19.6777344 C358.345354,19.6777344 356.56801,20.5082194 355.150367,22.1691895 C353.732724,23.8301595 353.023902,26.3533529 353.023902,29.7387695 Z" id="Shape"></path><path d="M380.03308,13.6157227 L389.522826,13.6157227 L397.584349,37.5463867 L405.455443,13.6157227 L414.691283,13.6157227 L402.789427,46.0522461 L400.662962,51.9238281 C399.880085,53.8916016 399.134235,55.3938802 398.425414,56.4306641 C397.716592,57.4674479 396.901976,58.3085124 395.981566,58.9538574 C395.061156,59.5992025 393.929157,60.1017253 392.58557,60.4614258 C391.241983,60.8211263 389.723835,61.0009766 388.031127,61.0009766 C386.317259,61.0009766 384.63513,60.8211263 382.98474,60.4614258 L382.191283,53.4790039 C383.587767,53.754069 384.846719,53.8916016 385.968138,53.8916016 C388.041706,53.8916016 389.575723,53.2832845 390.570189,52.0666504 C391.564655,50.8500163 392.326374,49.3001302 392.855345,47.4169922 L380.03308,13.6157227 Z" id="Path"></path></g><g id="the-European-Union" transform="translate(320.819887, 89.023592)" fill-rule="nonzero"><path d="M19.1381836,12.8222656 L19.1381836,19.9316406 L13.0444336,19.9316406 L13.0444336,33.515625 C13.0444336,36.266276 13.1026204,37.8690592 13.2189941,38.3239746 C13.3353678,38.77889 13.5998535,39.1544596 14.0124512,39.4506836 C14.4250488,39.7469076 14.9275716,39.8950195 15.5200195,39.8950195 C16.3452148,39.8950195 17.5406901,39.609375 19.1064453,39.0380859 L19.8681641,45.9570312 C17.7945964,46.8457031 15.4459635,47.2900391 12.8222656,47.2900391 C11.2141927,47.2900391 9.7648112,47.0202637 8.47412109,46.4807129 C7.18343099,45.9411621 6.23657227,45.2429199 5.63354492,44.3859863 C5.03051758,43.5290527 4.61263021,42.3706055 4.37988281,40.9106445 C4.18945312,39.8738607 4.09423828,37.7791341 4.09423828,34.6264648 L4.09423828,19.9316406 L0,19.9316406 L0,12.8222656 L4.09423828,12.8222656 L4.09423828,6.12548828 L13.0444336,0.920410156 L13.0444336,12.8222656 L19.1381836,12.8222656 Z" id="Path"></path><path d="M34.2138672,0 L34.2138672,17.1069336 C37.0914714,13.7426758 40.5297852,12.0605469 44.5288086,12.0605469 C46.5812174,12.0605469 48.4326172,12.4414063 50.0830078,13.203125 C51.7333984,13.9648438 52.9764811,14.938151 53.8122559,16.1230469 C54.6480306,17.3079427 55.2193197,18.6197917 55.526123,20.0585938 C55.8329264,21.4973958 55.9863281,23.7296549 55.9863281,26.7553711 L55.9863281,46.5283203 L47.0678711,46.5283203 L47.0678711,28.7231445 C47.0678711,25.1896159 46.8986003,22.9467773 46.5600586,21.9946289 C46.2215169,21.0424805 45.6237793,20.2860514 44.7668457,19.7253418 C43.9099121,19.1646322 42.8361003,18.8842773 41.5454102,18.8842773 C40.0642904,18.8842773 38.741862,19.2439779 37.578125,19.9633789 C36.414388,20.6827799 35.5627441,21.7671712 35.0231934,23.2165527 C34.4836426,24.6659342 34.2138672,26.8082682 34.2138672,29.6435547 L34.2138672,46.5283203 L25.2954102,46.5283203 L25.2954102,0 L34.2138672,0 Z" id="Path"></path><path d="M84.5507812,35.8007812 L93.4375,37.2924805 C92.2949219,40.550944 90.4911296,43.0318197 88.026123,44.7351074 C85.5611165,46.4383952 82.4772135,47.2900391 78.7744141,47.2900391 C72.9134115,47.2900391 68.5758464,45.3751628 65.7617188,41.5454102 C63.5400391,38.4773763 62.4291992,34.605306 62.4291992,29.9291992 C62.4291992,24.3432617 63.8891602,19.9686686 66.809082,16.8054199 C69.7290039,13.6421712 73.421224,12.0605469 77.8857422,12.0605469 C82.9003906,12.0605469 86.8570964,13.7162272 89.7558594,17.0275879 C92.6546224,20.3389486 94.0405273,25.4117839 93.9135742,32.2460938 L71.5698242,32.2460938 C71.6333008,34.8909505 72.3527018,36.9486491 73.7280273,38.4191895 C75.1033529,39.8897298 76.8172201,40.625 78.8696289,40.625 C80.2661133,40.625 81.4404297,40.2441406 82.3925781,39.4824219 C83.3447266,38.7207031 84.0641276,37.4934896 84.5507812,35.8007812 Z M85.0585938,26.7871094 C84.9951172,24.2057292 84.3286133,22.2432454 83.059082,20.8996582 C81.7895508,19.556071 80.2449544,18.8842773 78.425293,18.8842773 C76.4786784,18.8842773 74.8706055,19.593099 73.6010742,21.0107422 C72.331543,22.4283854 71.7073568,24.3538411 71.7285156,26.7871094 L85.0585938,26.7871094 Z" id="Shape"></path><polygon id="Path" points="119.304199 46.5283203 119.304199 0 153.803711 0 153.803711 7.87109375 128.69873 7.87109375 128.69873 18.1860352 152.058105 18.1860352 152.058105 26.0253906 128.69873 26.0253906 128.69873 38.6889648 154.692383 38.6889648 154.692383 46.5283203"></polygon><path d="M184.780273,46.5283203 L184.780273,41.4819336 C183.55306,43.2804362 181.939697,44.6980794 179.940186,45.7348633 C177.940674,46.7716471 175.830078,47.2900391 173.608398,47.2900391 C171.344401,47.2900391 169.313151,46.792806 167.514648,45.7983398 C165.716146,44.8038737 164.414876,43.4073893 163.61084,41.6088867 C162.806803,39.8103841 162.404785,37.3242188 162.404785,34.1503906 L162.404785,12.8222656 L171.323242,12.8222656 L171.323242,28.3105469 C171.323242,33.0501302 171.487223,35.9541829 171.815186,37.0227051 C172.143148,38.0912272 172.740885,38.9375814 173.608398,39.5617676 C174.475911,40.1859538 175.576172,40.4980469 176.90918,40.4980469 C178.432617,40.4980469 179.797363,40.0801595 181.003418,39.2443848 C182.209473,38.40861 183.034668,37.3718262 183.479004,36.1340332 C183.92334,34.8962402 184.145508,31.8652344 184.145508,27.0410156 L184.145508,12.8222656 L193.063965,12.8222656 L193.063965,46.5283203 L184.780273,46.5283203 Z" id="Path"></path><path d="M210.837402,46.5283203 L201.918945,46.5283203 L201.918945,12.8222656 L210.202637,12.8222656 L210.202637,17.6147461 C211.62028,15.3507487 212.895101,13.8590495 214.0271,13.1396484 C215.159098,12.4202474 216.444499,12.0605469 217.883301,12.0605469 C219.914551,12.0605469 221.871745,12.6212565 223.754883,13.7426758 L220.993652,21.5185547 C219.491374,20.5452474 218.094889,20.0585938 216.804199,20.0585938 C215.555827,20.0585938 214.497884,20.4024251 213.630371,21.0900879 C212.762858,21.7777507 212.080485,23.0208333 211.583252,24.8193359 C211.086019,26.6178385 210.837402,30.3841146 210.837402,36.1181641 L210.837402,46.5283203 Z" id="Path"></path><path d="M225.532227,29.1992188 C225.532227,26.2369792 226.262207,23.3699544 227.722168,20.5981445 C229.182129,17.8263346 231.250407,15.7104492 233.927002,14.2504883 C236.603597,12.7905273 239.592285,12.0605469 242.893066,12.0605469 C247.99235,12.0605469 252.171224,13.7162272 255.429688,17.0275879 C258.688151,20.3389486 260.317383,24.523112 260.317383,29.5800781 C260.317383,34.679362 258.672282,38.9058431 255.38208,42.2595215 C252.091878,45.6131999 247.950033,47.2900391 242.956543,47.2900391 C239.86735,47.2900391 236.92098,46.5917969 234.117432,45.1953125 C231.313883,43.7988281 229.182129,41.751709 227.722168,39.0539551 C226.262207,36.3562012 225.532227,33.0712891 225.532227,29.1992188 Z M234.672852,29.675293 C234.672852,33.0183919 235.466309,35.5786133 237.053223,37.355957 C238.640137,39.1333008 240.597331,40.0219727 242.924805,40.0219727 C245.252279,40.0219727 247.204183,39.1333008 248.780518,37.355957 C250.356852,35.5786133 251.14502,32.9972331 251.14502,29.6118164 C251.14502,26.3110352 250.356852,23.7719727 248.780518,21.9946289 C247.204183,20.2172852 245.252279,19.3286133 242.924805,19.3286133 C240.597331,19.3286133 238.640137,20.2172852 237.053223,21.9946289 C235.466309,23.7719727 234.672852,26.332194 234.672852,29.675293 Z" id="Shape"></path><path d="M267.045898,12.8222656 L275.361328,12.8222656 L275.361328,17.7734375 C276.44043,16.0807292 277.900391,14.7054036 279.741211,13.6474609 C281.582031,12.5895182 283.623861,12.0605469 285.866699,12.0605469 C289.781087,12.0605469 293.103027,13.5945638 295.83252,16.6625977 C298.562012,19.7306315 299.926758,24.0047201 299.926758,29.4848633 C299.926758,35.1131185 298.551432,39.4877116 295.800781,42.6086426 C293.05013,45.7295736 289.717611,47.2900391 285.803223,47.2900391 C283.941243,47.2900391 282.253825,46.9197591 280.740967,46.1791992 C279.228109,45.4386393 277.635905,44.1691081 275.964355,42.3706055 L275.964355,59.3505859 L267.045898,59.3505859 L267.045898,12.8222656 Z M275.869141,29.1040039 C275.869141,32.8914388 276.62028,35.6896973 278.122559,37.4987793 C279.624837,39.3078613 281.455078,40.2124023 283.613281,40.2124023 C285.686849,40.2124023 287.411296,39.3819173 288.786621,37.7209473 C290.161947,36.0599772 290.849609,33.3357747 290.849609,29.5483398 C290.849609,26.0148112 290.140788,23.3911133 288.723145,21.6772461 C287.305501,19.9633789 285.549316,19.1064453 283.45459,19.1064453 C281.275228,19.1064453 279.466146,19.9475098 278.027344,21.6296387 C276.588542,23.3117676 275.869141,25.8032227 275.869141,29.1040039 Z" id="Shape"></path><path d="M326.523438,35.8007812 L335.410156,37.2924805 C334.267578,40.550944 332.463786,43.0318197 329.998779,44.7351074 C327.533773,46.4383952 324.44987,47.2900391 320.74707,47.2900391 C314.886068,47.2900391 310.548503,45.3751628 307.734375,41.5454102 C305.512695,38.4773763 304.401855,34.605306 304.401855,29.9291992 C304.401855,24.3432617 305.861816,19.9686686 308.781738,16.8054199 C311.70166,13.6421712 315.39388,12.0605469 319.858398,12.0605469 C324.873047,12.0605469 328.829753,13.7162272 331.728516,17.0275879 C334.627279,20.3389486 336.013184,25.4117839 335.88623,32.2460938 L313.54248,32.2460938 C313.605957,34.8909505 314.325358,36.9486491 315.700684,38.4191895 C317.076009,39.8897298 318.789876,40.625 320.842285,40.625 C322.23877,40.625 323.413086,40.2441406 324.365234,39.4824219 C325.317383,38.7207031 326.036784,37.4934896 326.523438,35.8007812 Z M327.03125,26.7871094 C326.967773,24.2057292 326.30127,22.2432454 325.031738,20.8996582 C323.762207,19.556071 322.217611,18.8842773 320.397949,18.8842773 C318.451335,18.8842773 316.843262,19.593099 315.57373,21.0107422 C314.304199,22.4283854 313.680013,24.3538411 313.701172,26.7871094 L327.03125,26.7871094 Z" id="Shape"></path><path d="M349.819336,23.1054688 L341.726074,21.6455078 C342.635905,18.3870443 344.20166,15.9749349 346.42334,14.4091797 C348.64502,12.8434245 351.945801,12.0605469 356.325684,12.0605469 C360.303548,12.0605469 363.265788,12.5313314 365.212402,13.4729004 C367.159017,14.4144694 368.529053,15.6099447 369.32251,17.0593262 C370.115967,18.5087077 370.512695,21.1694336 370.512695,25.0415039 L370.41748,35.4516602 C370.41748,38.4138997 370.560303,40.5985514 370.845947,42.0056152 C371.131592,43.412679 371.665853,44.9202474 372.44873,46.5283203 L363.625488,46.5283203 C363.392741,45.9358724 363.107096,45.0577799 362.768555,43.894043 C362.620443,43.3650716 362.514648,43.0159505 362.451172,42.8466797 C360.927734,44.3277995 359.298503,45.4386393 357.563477,46.1791992 C355.828451,46.9197591 353.977051,47.2900391 352.009277,47.2900391 C348.539225,47.2900391 345.804443,46.3484701 343.804932,44.465332 C341.80542,42.582194 340.805664,40.2018229 340.805664,37.3242188 C340.805664,35.4199219 341.260579,33.7219238 342.17041,32.2302246 C343.080241,30.7385254 344.355062,29.5959473 345.994873,28.8024902 C347.634684,28.0090332 349.999186,27.3160807 353.088379,26.7236328 C357.256673,25.9407552 360.144857,25.2107747 361.75293,24.5336914 L361.75293,23.6450195 C361.75293,21.9311523 361.329753,20.7092285 360.483398,19.979248 C359.637044,19.2492676 358.039551,18.8842773 355.690918,18.8842773 C354.104004,18.8842773 352.866211,19.1963704 351.977539,19.8205566 C351.088867,20.4447428 350.369466,21.5397135 349.819336,23.1054688 Z M361.75293,30.3417969 C360.610352,30.7226562 358.80127,31.1775716 356.325684,31.706543 C353.850098,32.2355143 352.231445,32.7539062 351.469727,33.2617188 C350.30599,34.0869141 349.724121,35.1342773 349.724121,36.4038086 C349.724121,37.652181 350.189616,38.7312826 351.120605,39.6411133 C352.051595,40.550944 353.236491,41.0058594 354.675293,41.0058594 C356.283366,41.0058594 357.817383,40.476888 359.277344,39.4189453 C360.356445,38.6149089 361.065267,37.6310221 361.403809,36.4672852 C361.636556,35.7055664 361.75293,34.2561849 361.75293,32.1191406 L361.75293,30.3417969 Z" id="Shape"></path><path d="M409.963379,46.5283203 L401.044922,46.5283203 L401.044922,29.3261719 C401.044922,25.686849 400.854492,23.3329264 400.473633,22.2644043 C400.092773,21.1958822 399.473877,20.3653971 398.616943,19.7729492 C397.76001,19.1805013 396.728516,18.8842773 395.522461,18.8842773 C393.977865,18.8842773 392.59196,19.3074544 391.364746,20.1538086 C390.137533,21.0001628 389.296468,22.121582 388.841553,23.5180664 C388.386637,24.9145508 388.15918,27.495931 388.15918,31.262207 L388.15918,46.5283203 L379.240723,46.5283203 L379.240723,12.8222656 L387.524414,12.8222656 L387.524414,17.7734375 C390.465495,13.9648438 394.168294,12.0605469 398.632813,12.0605469 C400.600586,12.0605469 402.399089,12.4149577 404.02832,13.1237793 C405.657552,13.8326009 406.890055,14.7371419 407.72583,15.8374023 C408.561605,16.9376628 409.143473,18.1860352 409.471436,19.5825195 C409.799398,20.9790039 409.963379,22.9785156 409.963379,25.5810547 L409.963379,46.5283203 Z" id="Path"></path><path d="M437.067871,0 L446.462402,0 L446.462402,25.2001953 C446.462402,29.1992188 446.578776,31.7911784 446.811523,32.9760742 C447.213542,34.8803711 448.17098,36.4090983 449.683838,37.5622559 C451.196696,38.7154134 453.264974,39.2919922 455.888672,39.2919922 C458.554688,39.2919922 460.564779,38.7471517 461.918945,37.6574707 C463.273112,36.5677897 464.087728,35.2294922 464.362793,33.6425781 C464.637858,32.0556641 464.775391,29.4213867 464.775391,25.7397461 L464.775391,0 L474.169922,0 L474.169922,24.4384766 C474.169922,30.0244141 473.916016,33.9705404 473.408203,36.2768555 C472.900391,38.5831706 471.964111,40.5297852 470.599365,42.1166992 C469.234619,43.7036133 467.409668,44.9678548 465.124512,45.9094238 C462.839355,46.8509928 459.855957,47.3217773 456.174316,47.3217773 C451.730957,47.3217773 448.36141,46.8086751 446.065674,45.7824707 C443.769938,44.7562663 441.955566,43.4232585 440.622559,41.7834473 C439.289551,40.1436361 438.411458,38.4244792 437.988281,36.6259766 C437.374674,33.9599609 437.067871,30.0244141 437.067871,24.8193359 L437.067871,0 Z" id="Path"></path><path d="M514.667969,46.5283203 L505.749512,46.5283203 L505.749512,29.3261719 C505.749512,25.686849 505.559082,23.3329264 505.178223,22.2644043 C504.797363,21.1958822 504.178467,20.3653971 503.321533,19.7729492 C502.4646,19.1805013 501.433105,18.8842773 500.227051,18.8842773 C498.682454,18.8842773 497.296549,19.3074544 496.069336,20.1538086 C494.842122,21.0001628 494.001058,22.121582 493.546143,23.5180664 C493.091227,24.9145508 492.86377,27.495931 492.86377,31.262207 L492.86377,46.5283203 L483.945313,46.5283203 L483.945313,12.8222656 L492.229004,12.8222656 L492.229004,17.7734375 C495.170085,13.9648438 498.872884,12.0605469 503.337402,12.0605469 C505.305176,12.0605469 507.103678,12.4149577 508.73291,13.1237793 C510.362142,13.8326009 511.594645,14.7371419 512.43042,15.8374023 C513.266195,16.9376628 513.848063,18.1860352 514.176025,19.5825195 C514.503988,20.9790039 514.667969,22.9785156 514.667969,25.5810547 L514.667969,46.5283203 Z" id="Path"></path><path d="M523.713379,8.25195312 L523.713379,0 L532.631836,0 L532.631836,8.25195312 L523.713379,8.25195312 Z M523.713379,46.5283203 L523.713379,12.8222656 L532.631836,12.8222656 L532.631836,46.5283203 L523.713379,46.5283203 Z" id="Shape"></path><path d="M539.709473,29.1992188 C539.709473,26.2369792 540.439453,23.3699544 541.899414,20.5981445 C543.359375,17.8263346 545.427653,15.7104492 548.104248,14.2504883 C550.780843,12.7905273 553.769531,12.0605469 557.070313,12.0605469 C562.169596,12.0605469 566.34847,13.7162272 569.606934,17.0275879 C572.865397,20.3389486 574.494629,24.523112 574.494629,29.5800781 C574.494629,34.679362 572.849528,38.9058431 569.559326,42.2595215 C566.269124,45.6131999 562.127279,47.2900391 557.133789,47.2900391 C554.044596,47.2900391 551.098226,46.5917969 548.294678,45.1953125 C545.49113,43.7988281 543.359375,41.751709 541.899414,39.0539551 C540.439453,36.3562012 539.709473,33.0712891 539.709473,29.1992188 Z M548.850098,29.675293 C548.850098,33.0183919 549.643555,35.5786133 551.230469,37.355957 C552.817383,39.1333008 554.774577,40.0219727 557.102051,40.0219727 C559.429525,40.0219727 561.381429,39.1333008 562.957764,37.355957 C564.534098,35.5786133 565.322266,32.9972331 565.322266,29.6118164 C565.322266,26.3110352 564.534098,23.7719727 562.957764,21.9946289 C561.381429,20.2172852 559.429525,19.3286133 557.102051,19.3286133 C554.774577,19.3286133 552.817383,20.2172852 551.230469,21.9946289 C549.643555,23.7719727 548.850098,26.332194 548.850098,29.675293 Z" id="Shape"></path><path d="M612.13623,46.5283203 L603.217773,46.5283203 L603.217773,29.3261719 C603.217773,25.686849 603.027344,23.3329264 602.646484,22.2644043 C602.265625,21.1958822 601.646729,20.3653971 600.789795,19.7729492 C599.932861,19.1805013 598.901367,18.8842773 597.695313,18.8842773 C596.150716,18.8842773 594.764811,19.3074544 593.537598,20.1538086 C592.310384,21.0001628 591.46932,22.121582 591.014404,23.5180664 C590.559489,24.9145508 590.332031,27.495931 590.332031,31.262207 L590.332031,46.5283203 L581.413574,46.5283203 L581.413574,12.8222656 L589.697266,12.8222656 L589.697266,17.7734375 C592.638346,13.9648438 596.341146,12.0605469 600.805664,12.0605469 C602.773438,12.0605469 604.57194,12.4149577 606.201172,13.1237793 C607.830404,13.8326009 609.062907,14.7371419 609.898682,15.8374023 C610.734456,16.9376628 611.316325,18.1860352 611.644287,19.5825195 C611.972249,20.9790039 612.13623,22.9785156 612.13623,25.5810547 L612.13623,46.5283203 Z" id="Path"></path></g></g></g></svg>