<svg viewBox="0 0 90 30" focusable="false" class="chakra-icon css-1q74ncg" xmlns="http://www.w3.org/2000/svg"><title>Gemeente Amsterdam</title><path d="M9 28.2363L6.3 25.5908L9 22.9453L7.2 21.1817L4.5 23.8272L1.8 21.1817L0 22.9453L2.7 25.5908L0 28.2363L1.8 30L4.5 27.3545L7.2 30L9 28.2363ZM9 7.05467L6.3 4.40917L9 1.76367L7.2 0L4.5 2.6455L1.8 0L0 1.76367L2.7 4.40917L0 7.05467L1.8 8.81834L4.5 6.17284L7.2 8.81834L9 7.05467ZM9 17.6543L6.3 15.0088L9 12.3633L7.2 10.5996L4.5 13.2451L1.8 10.5996L0 12.3633L2.7 15.0088L0 17.6543L1.8 19.418L4.5 16.7725L7.2 19.418L9 17.6543Z" fill="black"></path><path d="M24.4805 13.5444L23.5633 13.9941L22.5717 14.2939L21.4314 14.4938L20.3406 14.5438H19.7705L19.2003 14.4938L18.7045 14.3439L18.2087 14.169L17.7129 13.9941L17.2915 13.7443L16.9196 13.4195L16.5478 13.0947L16.1759 12.7449L15.928 12.3451L15.6801 11.9203L15.4322 11.4956L15.2339 10.9959L15.1348 10.4212L15.0604 9.84656V8.74721L15.1348 8.17255L15.2339 7.59788L15.4322 7.09818L15.6801 6.59847L15.928 6.17372L16.1759 5.79894L16.5478 5.42416L16.9196 5.09935L17.2915 4.79953L17.7129 4.54968L18.2087 4.34979L18.7045 4.1749L19.2003 4.04997L19.7705 4H20.3406L21.4314 4.04997L22.0015 4.09994L22.4973 4.24985L22.9931 4.42475L23.4145 4.59965L23.8608 4.92446L24.307 5.24926L22.9931 6.5485L22.6708 6.34862L22.423 6.17372L21.828 5.84891L21.0843 5.67402L20.3406 5.59906H19.944L19.5969 5.67402L18.9524 5.84891L18.3574 6.17372L17.8616 6.59847L17.465 7.17313L17.1675 7.79777L16.9692 8.49735L16.9196 9.17196L16.9692 9.99647L17.1675 10.6711L17.465 11.2957L17.8616 11.8454L18.3574 12.2951L18.9524 12.6699L19.2747 12.7948L19.5969 12.8448L19.944 12.9198H21.0099L21.6297 12.7948L22.1751 12.6699L22.6708 12.42V10.0464H20.6381V8.4224H24.4805V13.5444ZM27.7775 11.4956L27.8271 11.8704L28.0254 12.1702L28.1494 12.42L28.3973 12.6699L28.6452 12.8698L28.9426 12.9947L29.2401 13.1196H29.9094L30.1573 13.0697L30.6531 12.8698L31.0994 12.57L31.3968 12.1952L32.6363 13.1446L32.3388 13.5194L32.0414 13.7693L31.6695 14.0191L31.2977 14.219L30.9258 14.3439L30.554 14.4688L30.1821 14.5188H29.7359L28.9922 14.4688L28.2981 14.269L27.6784 13.9691L27.133 13.5194L26.6868 13.0197L26.3893 12.3951L26.2654 12.0952L26.1414 11.7205L26.0918 11.2957V10.4712L26.1414 10.0964L26.2654 9.72163L26.3893 9.42181L26.6868 8.79718L27.133 8.29747L27.6784 7.84774L28.3229 7.54791L29.017 7.34803L29.7607 7.29806L30.4548 7.34803L31.0498 7.54791L31.5951 7.84774L32.0909 8.29747L32.4628 8.79718L32.7107 9.42181L32.909 10.1714L32.9586 11.0459V11.4956H27.7775ZM31.2481 10.2463V9.87155L31.1241 9.57172L31.0002 9.2719L30.8019 9.04703L30.554 8.84715L30.2565 8.64727L29.959 8.5973H29.1905L28.8931 8.64727L28.5956 8.84715L28.3477 9.04703L28.1494 9.24691L27.9511 9.54674L27.8271 9.84656L27.7775 10.2213H31.2481V10.2463ZM34.4708 7.49794H36.0573V8.54732H36.1317L36.3796 8.04762L36.5531 7.84774L36.801 7.67284L37.1233 7.54791L37.4455 7.42299L37.7926 7.29806H38.5363L38.9329 7.34803L39.2304 7.49794L39.4783 7.59788L39.7262 7.79777L39.9741 7.99765L40.1724 8.29747L40.2716 8.54732L40.4699 8.2475L40.7178 7.99765L40.9657 7.79777L41.2136 7.59788L41.511 7.49794L41.8333 7.34803L42.1556 7.29806H42.5026L43.1472 7.34803L43.6925 7.54791L44.1388 7.79777L44.4362 8.17255L44.6841 8.5973L44.8824 9.097L44.932 9.59671L44.9816 10.2463V14.2939H43.2463V9.79659L43.1472 9.54674L42.9984 9.29688L42.8993 9.097L42.6514 8.99706L42.4035 8.84715H41.6598L41.3375 8.99706L41.0896 9.17196L40.9161 9.42181L40.7673 9.67166L40.6682 9.99647L40.5938 10.2963V14.2939H38.8585V9.92152L38.7842 9.67166L38.7346 9.42181L38.6106 9.24691L38.4371 9.04703L38.2388 8.9221L37.9909 8.84715H37.2968L36.9993 8.99706L36.7514 9.17196L36.5035 9.34685L36.3796 9.59671L36.2556 9.92152L36.206 10.2463L36.1317 10.5961V14.2939H34.4708V7.49794ZM48.2043 11.4956L48.2538 11.8704L48.3778 12.1702L48.5761 12.42L48.7744 12.6699L49.0223 12.8698L49.3198 12.9947L49.6173 13.1196H50.2866L50.5345 13.0697L51.0303 12.8698L51.4765 12.57L51.774 12.1952L53.0135 13.1446L52.716 13.5194L52.4185 13.7693L52.0467 14.0191L51.7492 14.219L51.3774 14.2939L50.9311 14.4189L50.5593 14.4688H50.1875L49.4438 14.4189L48.7001 14.219L48.0803 13.9192L47.5845 13.4694L47.0887 12.9697L46.7913 12.3451L46.6673 12.0453L46.5434 11.6705L46.4938 11.2957V10.4712L46.5434 10.0964L46.6673 9.72163L46.7913 9.42181L47.0887 8.79718L47.5845 8.29747L48.0803 7.84774L48.7001 7.54791L49.4438 7.34803L50.1875 7.29806L50.8816 7.34803L51.5013 7.54791L51.9971 7.84774L52.4929 8.29747L52.8647 8.79718L53.1126 9.42181L53.311 10.1714L53.3605 11.0459V11.4956H48.2043ZM51.6748 10.2463L51.6253 9.87155L51.5757 9.57172L51.3774 9.2719L51.179 9.07202L50.9311 8.87213L50.6337 8.67225L50.3362 8.62228H49.5925L49.295 8.67225L48.9975 8.87213L48.7496 9.07202L48.5513 9.2719L48.4026 9.54674L48.2786 9.84656L48.2291 10.2213H51.6748V10.2463ZM56.2857 11.4956L56.4097 11.8704L56.5336 12.1702L56.6576 12.42L56.9055 12.6699L57.1534 12.8698L57.4508 12.9947L57.7483 13.1196H58.4176L58.6655 13.0697L59.1613 12.8698L59.6075 12.57L59.905 12.1952L61.1445 13.1446L60.847 13.5194L60.5496 13.7693L60.1777 14.0191L59.8059 14.219L59.434 14.3439L59.0622 14.4688L58.6903 14.5188H58.3185L57.5252 14.4688L56.8311 14.269L56.2114 13.9691L55.666 13.5194L55.2198 13.0197L54.9223 12.3951L54.7983 12.0952L54.6744 11.7205L54.6 11.2957V10.4712L54.6496 10.0964L54.7736 9.72163L54.8975 9.42181L55.195 8.79718L55.6412 8.29747L56.1866 7.84774L56.8311 7.54791L57.5252 7.34803L58.3185 7.29806L59.0126 7.34803L59.558 7.54791L60.1033 7.84774L60.5991 8.29747L60.971 8.79718L61.2189 9.42181L61.4172 10.1714L61.4668 11.0459V11.4956H56.2857ZM59.7563 10.2463V9.87155L59.6323 9.57172L59.5084 9.2719L59.3101 9.04703L59.0622 8.84715L58.7647 8.64727L58.4672 8.5973H57.6987L57.4013 8.64727L57.1038 8.84715L56.8559 9.04703L56.6576 9.24691L56.4592 9.54674L56.4097 9.84656L56.2857 10.2213H59.7563V10.2463ZM63.0285 7.49794H64.6399V8.54732H64.7142L65.0117 8.09759L65.21 7.84774L65.4579 7.67284L65.7058 7.54791L66.0033 7.42299L66.3751 7.29806H66.747L67.3667 7.34803L67.9369 7.54791L68.3583 7.79777L68.6806 8.09759L68.9285 8.54732L69.102 8.99706L69.226 9.49677V14.2939H67.5403V10.846L67.4907 10.2463V9.84656L67.3667 9.54674L67.2428 9.29688L66.9949 9.04703L66.6974 8.9221L66.3008 8.84715H65.9537L65.5571 8.99706L65.3092 9.17196L65.1357 9.34685L64.9621 9.59671L64.8134 9.92152L64.7638 10.2463V14.2939H63.0285V7.49794ZM70.3415 8.9221V7.49794H71.7545V5.49912H73.4402V7.49794H75.3738V8.9221H73.4402V11.9203L73.4898 12.3451L73.5642 12.545L73.6881 12.7449L73.8121 12.8448L73.936 12.9198L74.1839 12.9947L74.4318 13.0447L74.9276 12.9947L75.1259 12.9198L75.3738 12.7948V14.244L75.0515 14.3439L74.6797 14.4189L73.9856 14.4938L73.3906 14.4189L72.8948 14.3439L72.4982 14.169L72.2007 13.8442L72.0024 13.5444L71.9032 13.0947L71.7545 12.5949V8.9221H70.3415ZM78.0263 11.4956L78.0759 11.8704L78.1998 12.1702L78.3982 12.42L78.5965 12.6699L78.894 12.8698L79.1419 12.9947L79.5137 13.1196H80.1087L80.4061 13.0697L80.9019 12.8698L81.2738 12.57L81.6456 12.1952L82.8355 13.1446L82.5381 13.5194L82.2406 13.7693L81.9431 14.0191L81.5712 14.219L81.1994 14.3439L80.8276 14.4688L80.3813 14.5188H80.0095L79.2658 14.4688L78.5717 14.269L77.952 13.9691L77.4066 13.5194L76.9604 13.0197L76.5885 12.3951L76.4646 12.0952L76.415 11.7205L76.3654 11.3457L76.3158 10.9709L76.3654 10.5212L76.415 10.1464L76.4646 9.7716L76.5885 9.47178L76.9604 8.84715L77.4066 8.34744L77.952 7.89771L78.5717 7.59788L79.2658 7.398L80.0095 7.34803L80.7036 7.398L81.3233 7.59788L81.8687 7.89771L82.3149 8.34744L82.6868 8.84715L82.9843 9.47178L83.1082 10.2213L83.1578 11.0958V11.5456H78.0263V11.4956ZM81.4969 10.2463L81.4473 9.87155L81.3729 9.54674L81.249 9.24691L81.0011 9.04703L80.7532 8.84715L80.5053 8.64727L80.1334 8.5973H79.3898L79.0923 8.64727L78.8444 8.84715L78.5965 9.04703L78.3486 9.24691L78.2246 9.54674L78.1007 9.84656L78.0511 10.2213H81.4969V10.2463ZM18.8532 19.241H20.3902L24.654 29.2851H22.6213L21.6793 26.9865H17.3411L16.4734 29.2851H14.4902L18.8532 19.241ZM21.0843 25.4874L19.5473 21.3648L18.0104 25.4874H21.0843ZM25.5465 22.4891H27.133V23.5385H27.2074L27.5296 23.0888L27.7032 22.8389L27.9511 22.664L28.199 22.5391L28.5212 22.4142L28.8683 22.3392L29.2649 22.2892H29.6863L30.0086 22.3392L30.3061 22.4891L30.6036 22.5891L30.8515 22.7889L31.0498 22.9888L31.2481 23.2887L31.4216 23.5385L31.5951 23.2887L31.7935 22.9888L32.0414 22.7889L32.3388 22.5891L32.5867 22.4891L32.909 22.3392L33.2809 22.2892H33.6527L34.2724 22.3392L34.7682 22.5391L35.2145 22.7889L35.5119 23.1637L35.7598 23.5885L35.9581 24.0882L36.0573 24.6628V29.2851H34.3964V25.4124L34.322 24.8377L34.2724 24.5379L34.1485 24.2881L33.975 24.0882L33.7271 23.9882L33.4792 23.8383H32.7851L32.4876 23.9882L32.2397 24.1631L31.9918 24.413L31.843 24.6628L31.7439 24.9877L31.6695 25.2875V29.2851H30.0086V25.2375L29.9342 24.9127V24.6628L29.8103 24.413L29.6863 24.2381L29.5624 24.0382L29.3145 23.9133L29.1162 23.8383H28.4469L28.075 23.9882L27.8271 24.1631L27.6288 24.338L27.4553 24.5879L27.3313 24.9127L27.2817 25.2375V29.2851H25.5465V22.4891ZM41.511 24.338L41.2631 24.0382L40.9657 23.8383L40.5938 23.7384L40.222 23.6634L39.8501 23.7384L39.5279 23.8383L39.4287 23.9133L39.28 24.0382L39.2304 24.2381V24.413L39.28 24.5879L39.3543 24.7878L39.5279 24.9127L39.7758 24.9877L40.4203 25.1626L41.0152 25.2875L41.7094 25.5373L42.0068 25.6623L42.3291 25.8372L42.577 26.162L42.7009 26.4868L42.8249 26.8366L42.8993 27.2863L42.8249 27.836L42.6514 28.2857L42.3291 28.6605L41.9573 28.9853L41.511 29.2352L41.0152 29.3351L40.4699 29.485H39.9741L39.2304 29.4101L38.8585 29.3351L38.4867 29.2352L38.1892 29.0852L37.867 28.9103L37.6191 28.7355L37.2968 28.4106L38.4371 27.3363L38.7842 27.6611L39.1808 27.9859L39.5279 28.1608L40.0237 28.2357L40.4699 28.1608L40.8417 28.0359L40.9657 27.9109L41.0896 27.786L41.164 27.5861L41.2136 27.4112L41.164 27.1614L41.0152 26.9865L40.8417 26.8366L40.5938 26.7366L40.0237 26.5367L39.3543 26.4118L38.685 26.2369L38.3627 26.037L38.1148 25.8372L37.867 25.5873L37.6934 25.3374L37.5447 24.9877V24.4879L37.6191 23.9882L37.743 23.5385L38.0405 23.1637L38.3627 22.8389L38.7842 22.5891L39.2304 22.4142L39.7262 22.3392L40.2716 22.2892L40.9657 22.3392L41.5854 22.5391L41.9077 22.664L42.2052 22.8389L42.4531 23.0888L42.7009 23.3386L41.511 24.338ZM43.3951 23.9133V22.4891H44.8081V20.4903H46.469V22.4891H48.353V23.9133H46.469V26.9115L46.5434 27.3363L46.6177 27.5362L46.6673 27.736L46.8656 27.836L46.9648 27.9859H47.2127L47.4606 28.0359L47.9564 27.9859L48.1547 27.9109L48.353 27.786V29.2352L48.1051 29.3351L47.7085 29.4101L47.0392 29.485L46.4194 29.4101L45.9236 29.3351L45.5518 29.1602L45.2295 28.8354L45.056 28.5356L44.932 28.0858L44.8081 27.5861V23.9133H43.3951ZM51.0799 26.4868L51.1295 26.8616L51.2534 27.1614L51.4517 27.4612L51.65 27.6611L51.9475 27.861L52.1954 27.9859L52.5673 28.1108H53.1622L53.4597 28.0608L53.9059 27.861L54.3521 27.5611L54.724 27.1864L55.9139 28.1358L55.6164 28.5106L55.3189 28.7604L55.0215 29.0103L54.6496 29.2102L54.2778 29.3351L53.9059 29.46L53.4597 29.51H53.0878L52.3442 29.46L51.65 29.2601L51.0303 28.9603L50.4849 28.5106L50.0387 28.0109L49.6669 27.3862L49.5429 27.0864L49.4933 26.7116L49.3942 26.2869L49.3446 25.9121L49.3942 25.4624L49.4438 25.0876L49.4933 24.7878L49.6173 24.413L49.9891 23.7884L50.4354 23.2887L50.9807 22.8389L51.6253 22.5391L52.3194 22.3392L53.0631 22.2892L53.7572 22.3392L54.3521 22.5391L54.8975 22.8389L55.3437 23.2887L55.7156 23.7884L56.013 24.413L56.137 25.1626L56.1866 26.037V26.4868H51.0799ZM54.5504 25.2375L54.5009 24.8627L54.4513 24.5629L54.253 24.2631L54.0546 24.0632L53.8067 23.8633L53.5588 23.6634L53.187 23.6135H52.4433L52.1458 23.7384L51.8979 23.8633L51.65 24.0632L51.4021 24.313L51.2782 24.5629L51.1542 24.8627L51.1047 25.2375H54.5504ZM57.8227 22.4891H59.5084V23.5385H59.558L59.6819 23.2887L59.8554 23.0388L60.1033 22.7889L60.3512 22.5891L60.5991 22.4891L60.9214 22.4142L61.2437 22.2892H61.5411L61.8386 22.3392L62.1609 22.4142V24.0382L61.7395 23.9882L61.3428 23.9133L60.7975 23.9882L60.3512 24.1631L60.0538 24.338L59.8059 24.6628L59.6819 24.9127L59.558 25.2375L59.5084 25.6623V29.2851H57.8227V22.4891ZM68.4327 28.2857L68.1848 28.5855L67.9865 28.7854L67.689 29.0353L67.4411 29.1602L67.1436 29.2851L66.7718 29.4101L66.0777 29.46L65.334 29.4101L64.6399 29.2102L64.0945 28.8354L63.5987 28.3857L63.2268 27.8859L62.9789 27.2613L62.7806 26.5617L62.7311 25.8621L62.7806 25.1126L62.9789 24.413L63.2764 23.7884L63.6483 23.2887L64.1441 22.8389L64.6894 22.5391L65.3092 22.2892H66.0033L66.4495 22.3392L66.8957 22.3892L67.1932 22.5141L67.4907 22.639L67.9865 22.9389L68.284 23.3136H68.3335V18.5414H70.0192V29.2851H68.4079V28.2857H68.4327ZM66.4495 27.9109H66.8957L67.2676 27.786L67.6394 27.5861L67.8873 27.2863L68.1352 27.0364L68.3335 26.6617L68.3831 26.2869L68.4327 25.9121L68.3831 25.4624L68.3335 25.0876L68.1352 24.7878L67.8873 24.4879L67.6394 24.2381L67.2676 23.9882L66.8957 23.8633H65.9537L65.5819 23.9882L65.2844 24.2381L64.9869 24.4879L64.739 24.7878L64.6151 25.0876L64.4911 25.4624L64.4415 25.9121L64.4911 26.2869L64.6151 26.6617L64.739 27.0364L64.9869 27.2863L65.2844 27.5861L65.5819 27.786L65.9537 27.9109H66.4495ZM76.2167 28.3357H76.1671L75.9688 28.6355L75.7209 28.8354L75.473 29.0353L75.2251 29.2352L74.9276 29.3601L74.6301 29.4101L74.0104 29.46H73.5146L73.0684 29.3351L72.6222 29.1352L72.2503 28.9353L71.9528 28.6355L71.7049 28.2607L71.581 27.8859L71.5314 27.3862V27.0364L71.6554 26.6617L71.7793 26.4118L71.9776 26.112L72.1759 25.9121L72.4238 25.7122L72.6965 25.5373L72.994 25.4124L73.6881 25.2125L74.3822 25.0876L75.1259 25.0376H76.2662V24.8377L76.1671 24.5379L76.1175 24.2881L75.9936 24.0882L75.7952 23.8883L75.5473 23.7634L75.2994 23.6384L75.002 23.5885H74.1343L73.6385 23.7884L73.1923 23.9882L72.8205 24.2881L71.9528 23.4136L72.2503 23.1138L72.5478 22.9139L72.8453 22.714L73.2171 22.5141L74.0104 22.3142L74.8037 22.2643L75.2994 22.3142L75.7457 22.3642L76.1175 22.4142L76.4894 22.6141L76.7372 22.739L76.9851 22.9888L77.1835 23.1887L77.3074 23.4386L77.5553 23.9383L77.6793 24.438V29.2851H76.1919V28.3357H76.2167ZM76.1175 26.2369H75.7457L75.002 26.2869H74.5558L74.1095 26.4118L73.7377 26.5367L73.4898 26.7366L73.2419 26.9865V27.1114L73.1923 27.2863L73.2419 27.5362L73.2915 27.736L73.4154 27.861L73.6138 27.9859L73.9856 28.1858L74.3574 28.2357L74.8037 28.1858L75.1755 28.1358L75.4234 28.0109L75.6713 27.811L75.8696 27.5611L75.9936 27.3113L76.1175 27.0115V26.2369ZM79.5137 22.4891H81.125V23.5385L81.4225 23.0888L81.6208 22.8389L81.8687 22.664L82.1166 22.5391L82.4141 22.4142L82.8107 22.3392L83.1578 22.2892H83.604L83.9015 22.3392L84.2238 22.4891L84.546 22.5891L84.7939 22.7889L84.9674 22.9888L85.141 23.2887L85.3393 23.5385L85.5376 23.2887L85.7111 22.9888L85.959 22.7889L86.2813 22.5891L86.5292 22.4891L86.8267 22.3392L87.1985 22.2892H87.5704L88.1901 22.3392L88.6859 22.5391L89.1073 22.7889L89.4296 23.1637L89.6775 23.5885L89.851 24.0882L89.9998 24.6628V29.2851H88.3141V25.4124L88.2645 24.8377L88.1901 24.5379L88.0662 24.2881L87.8678 24.0882L87.6943 23.9882L87.3721 23.8383H86.7027L86.3805 23.9882L86.1326 24.1631L85.8847 24.413L85.7855 24.6628L85.6368 24.9877L85.5872 25.2875V29.2851H83.9015V25.2375L83.8519 24.9127V24.6628L83.728 24.413L83.604 24.2381L83.4801 24.0382L83.2322 23.9133L83.0586 23.8383H82.3645L81.9927 23.9882L81.7448 24.1631L81.5712 24.338L81.3729 24.5879L81.249 24.9127L81.1746 25.2375V29.2851H79.5137V22.4891Z" fill="black"></path></svg>