<svg viewBox="0 0 89 15" focusable="false" class="chakra-icon css-p7pcue" xmlns="http://www.w3.org/2000/svg"><title>Heineken</title><path d="M35.3216 9.69905C35.3216 10.1895 35.0892 10.3357 34.2173 10.6132C33.5194 10.8525 32.9823 10.9583 32.822 10.9583C32.5311 10.9583 32.4009 10.7594 32.4009 10.3483C32.4009 9.36812 32.7056 8.17534 33.8397 8.17534C34.8862 8.17534 35.3216 9.20896 35.3216 9.69905ZM23.9845 13.9797C23.9845 13.8996 23.9707 13.8477 23.9276 13.8076C23.8108 13.7007 23.375 13.6354 23.1573 13.4362C22.9982 13.29 22.8953 13.0389 22.8953 12.456V10.2155C22.8953 10.0433 22.9392 9.93761 23.128 9.93761H25.6284C25.8172 9.93761 25.8608 10.043 25.8608 10.2159V12.456C25.8608 13.0389 25.7595 13.2904 25.5991 13.4362C25.3814 13.6347 24.9452 13.7007 24.8289 13.8076C24.7849 13.8477 24.7707 13.9 24.7707 13.9794C24.7707 14.3236 24.8293 14.6695 24.8866 14.7214C24.9452 14.7748 25.0323 14.7878 25.2215 14.7878H29.3052C29.494 14.7878 29.5815 14.7752 29.6392 14.7214C29.6978 14.6691 29.7564 14.3236 29.7564 13.9797C29.7564 13.8996 29.7405 13.8477 29.6978 13.8076C29.5957 13.7152 29.1453 13.6354 28.9267 13.4362C28.7677 13.29 28.6802 13.0121 28.6802 12.5614V6.3726C28.6802 6.05465 28.7681 5.84205 28.8979 5.72372C29.1306 5.5115 29.5957 5.47142 29.6974 5.37829C29.741 5.3386 29.756 5.25959 29.756 5.19317C29.756 4.95461 29.6974 4.59697 29.6392 4.54391C29.5806 4.49048 29.5233 4.47712 29.3052 4.47712H25.366C25.2069 4.47712 25.1483 4.49086 25.1047 4.53055C25.0612 4.57063 25.0172 4.84888 25.0172 5.20615C25.0172 5.27218 25.0319 5.35196 25.0612 5.37791C25.1332 5.44509 25.4974 5.5512 25.6431 5.68326C25.8022 5.82945 25.8608 5.98862 25.8608 6.43902V8.20129C25.8608 8.2677 25.7875 8.36007 25.6862 8.36007H23.0698C22.9677 8.36007 22.8953 8.2677 22.8953 8.20129V6.43902C22.8953 5.98862 22.9539 5.82945 23.1134 5.68326C23.259 5.55082 23.622 5.44509 23.6952 5.37791C23.7245 5.35234 23.7388 5.27256 23.7388 5.20615C23.7388 4.8485 23.6948 4.57025 23.6513 4.53055C23.6078 4.49086 23.5491 4.47712 23.3897 4.47712H19.4509C19.2332 4.47712 19.1746 4.49086 19.116 4.54391C19.0586 4.59697 19 4.95461 19 5.19279C19 5.25959 19.0147 5.3386 19.0586 5.37829C19.1603 5.47142 19.6254 5.5115 19.8582 5.72372C19.9884 5.84205 20.0759 6.05465 20.0759 6.3726V12.5614C20.0759 13.0118 19.9884 13.29 19.8289 13.4362C19.6112 13.6347 19.1603 13.7148 19.0586 13.8076C19.0147 13.8477 19 13.9 19 13.9794C19 14.3236 19.0586 14.6695 19.116 14.7214C19.1746 14.7748 19.2332 14.7878 19.4509 14.7878H23.5349C23.7237 14.7878 23.8112 14.7752 23.8698 14.7214C23.9276 14.6691 23.9845 14.3236 23.9845 13.9797ZM37.4879 13.7939C37.9091 13.4099 38.0116 13.1839 38.0116 12.9984C38.0116 12.7995 37.953 12.6404 37.7789 12.4816C37.5893 12.3094 37.4302 12.2827 37.2841 12.2827C37.0806 12.2827 36.9931 12.3358 36.8629 12.4556C36.2233 13.0385 35.4091 13.356 34.4207 13.356C33.4181 13.356 32.7927 12.7469 32.7927 12.3621C32.7927 12.2568 32.8948 12.1633 33.1556 12.0972C35.947 11.3022 37.1095 10.7724 37.5453 10.3743C37.7923 10.1624 37.894 9.91051 37.894 9.68531C37.894 8.67764 36.2961 6.88941 33.8392 6.88941C32.822 6.88941 31.7901 7.25965 31.0198 7.96197C30.2496 8.66505 29.7698 9.65821 29.7698 11.0105C29.7698 12.3091 30.2207 13.2106 31.0056 13.9263C31.7905 14.642 32.9241 14.9996 34.1599 14.9996C35.4241 14.9996 36.6164 14.5893 37.4879 13.7935M42.0375 7.33981C42.0375 7.16805 41.9354 7.10125 41.7759 7.10125H38.9703C38.8104 7.10125 38.7526 7.10125 38.7082 7.15469C38.6505 7.20774 38.5931 7.56539 38.5931 7.80433C38.5931 7.87036 38.6224 7.92266 38.6505 7.96273C38.7526 8.08182 38.9703 8.1219 39.1595 8.2677C39.2901 8.38679 39.3487 8.63909 39.3487 9.02307V12.5614C39.3487 13.0125 39.2901 13.3038 39.1444 13.4366C38.9267 13.6351 38.563 13.7282 38.4621 13.8206C38.4332 13.8481 38.4181 13.9003 38.4181 13.9935C38.4181 14.3378 38.4767 14.6691 38.5341 14.7217C38.578 14.7614 38.65 14.7882 38.8104 14.7882H42.5461C42.7056 14.7882 42.7785 14.7614 42.8224 14.7217C42.8802 14.6695 42.9237 14.3378 42.9237 13.9935C42.9237 13.9003 42.9095 13.8481 42.8802 13.8206C42.7785 13.7282 42.444 13.6358 42.2263 13.4366C42.0815 13.3038 42.0379 13.0125 42.0379 12.5617V7.33981H42.0375ZM40.4819 4C39.6828 4 39.0285 4.57063 39.0285 5.2863C39.0285 6.01496 39.6828 6.5852 40.4819 6.5852C41.2961 6.5852 41.9504 6.01496 41.9504 5.2863C41.9504 4.57025 41.2966 4 40.4819 4ZM51.747 9.15552C51.747 7.67074 50.9039 6.91613 49.581 6.91613C48.9556 6.91613 48.2875 7.10125 47.6186 7.47264C47.3858 7.60547 47.3134 7.6444 47.2552 7.6444C47.0224 7.6444 47.1824 7.10087 46.7612 7.10087H44.2034C44.0427 7.10087 43.9996 7.10087 43.9414 7.15431C43.8686 7.22072 43.8108 7.56501 43.8108 7.80395C43.8108 7.86998 43.8254 7.92227 43.8694 7.96235C43.9849 8.06884 44.2034 8.10854 44.3776 8.26732C44.509 8.38641 44.566 8.63871 44.566 9.02269V12.561C44.566 13.0121 44.5224 13.3034 44.3776 13.4362C44.1741 13.6213 43.8254 13.7278 43.7237 13.8206C43.6948 13.8473 43.6798 13.9 43.6798 13.9931C43.6798 14.3374 43.7237 14.6687 43.7823 14.7214C43.8259 14.7611 43.9125 14.7878 44.0728 14.7878H47.7358C47.9099 14.7878 47.9677 14.7611 48.0108 14.7214C48.0845 14.6553 48.1422 14.3374 48.1422 13.9931C48.1422 13.9 48.1276 13.8477 48.0983 13.8206C47.9828 13.7152 47.6483 13.6217 47.4444 13.4362C47.2991 13.3034 47.2267 13.0121 47.2267 12.5614V9.95059C47.2267 8.87765 47.8798 8.54596 48.3599 8.54596C48.8543 8.54596 49.1306 8.87765 49.1306 9.57958V13.2515C49.1306 14.2317 49.8138 14.8809 51.0491 14.8809C52.4151 14.8809 52.9961 13.9801 52.9961 13.7942C52.9961 13.6354 52.7207 13.3171 52.5461 13.3171C52.3423 13.3171 52.0522 13.5557 51.9065 13.5557C51.8052 13.5557 51.7474 13.4893 51.7474 13.277V9.1559L51.747 9.15552ZM78.6798 13.7939C79.1013 13.4099 79.203 13.1839 79.203 12.9984C79.203 12.7995 79.1444 12.6404 78.9703 12.4816C78.7819 12.3094 78.6203 12.2827 78.4763 12.2827C78.2724 12.2827 78.1854 12.3358 78.0543 12.4556C77.4147 13.0385 76.6005 13.356 75.6121 13.356C74.6095 13.356 73.9841 12.7469 73.9841 12.3621C73.9841 12.2568 74.0858 12.1633 74.3475 12.0972C77.1384 11.3022 78.3009 10.7724 78.7371 10.3743C78.9841 10.1624 79.0858 9.91051 79.0858 9.68531C79.0858 8.67764 77.4871 6.88941 75.0302 6.88941C74.0121 6.88941 72.9807 7.25965 72.2104 7.96273C71.4401 8.66505 70.9608 9.65859 70.9608 11.0109C70.9608 12.3094 71.4113 13.211 72.1962 13.9267C72.9811 14.6424 74.1147 15 75.35 15C76.6155 15 77.8078 14.5893 78.6798 13.7939ZM76.5138 9.69905C76.5138 10.1895 76.2811 10.3357 75.4091 10.6132C74.7112 10.8525 74.1733 10.9583 74.013 10.9583C73.7229 10.9583 73.5918 10.7594 73.5918 10.3483C73.5918 9.36736 73.8974 8.17495 75.0311 8.17495C76.0776 8.17495 76.5138 9.20896 76.5138 9.69905ZM60.816 13.7939C61.2371 13.4099 61.3401 13.1839 61.3401 12.9984C61.3401 12.7995 61.2815 12.6404 61.1069 12.4816C60.9185 12.3094 60.7586 12.2827 60.6129 12.2827C60.4082 12.2827 60.322 12.3358 60.191 12.4556C59.5517 13.0385 58.7371 13.356 57.7487 13.356C56.7462 13.356 56.1207 12.7469 56.1207 12.3621C56.1207 12.2568 56.2229 12.1633 56.4849 12.0972C59.275 11.3022 60.4375 10.7724 60.8733 10.3743C61.1211 10.1624 61.2225 9.91051 61.2225 9.68531C61.2225 8.67764 59.6242 6.88941 57.1669 6.88941C56.1496 6.88941 55.1177 7.25965 54.3479 7.96273C53.578 8.66581 53.0979 9.65859 53.0979 11.0109C53.0979 12.3094 53.5483 13.211 54.3328 13.9267C55.1181 14.6424 56.2522 15 57.4875 15C58.7522 15 59.9448 14.5893 60.816 13.7939ZM58.6509 9.69905C58.6509 10.1895 58.4177 10.3357 57.5461 10.6132C56.8479 10.8525 56.3112 10.9583 56.1505 10.9583C55.8595 10.9583 55.7293 10.7594 55.7293 10.3483C55.7293 9.36736 56.0349 8.17495 57.1677 8.17495C58.2143 8.17495 58.6509 9.20896 58.6509 9.69905ZM87.7483 9.15552C87.7483 7.67074 86.9061 6.91575 85.5841 6.91575C84.9586 6.91575 84.2897 7.10087 83.6216 7.47264C83.3884 7.60509 83.3151 7.6444 83.2582 7.6444C83.0255 7.6444 83.1849 7.10087 82.7642 7.10087H80.2056C80.0457 7.10087 80.0022 7.10087 79.944 7.15431C79.8711 7.22072 79.8134 7.56539 79.8134 7.80433C79.8134 7.86998 79.828 7.92266 79.872 7.96273C79.9879 8.06922 80.206 8.10892 80.3806 8.2677C80.5112 8.38679 80.5694 8.63909 80.5694 9.02307V12.5614C80.5694 13.0125 80.5259 13.3038 80.381 13.4366C80.1767 13.6217 79.8284 13.7282 79.7267 13.8206C79.6978 13.8481 79.6832 13.9003 79.6832 13.9935C79.6832 14.3378 79.7267 14.6691 79.7837 14.7217C79.8284 14.7614 79.9155 14.7882 80.0754 14.7882H83.7375C83.9125 14.7882 83.9707 14.7614 84.0147 14.7217C84.0875 14.6553 84.1448 14.3378 84.1448 13.9935C84.1448 13.9003 84.131 13.8481 84.1013 13.8206C83.9853 13.7156 83.6509 13.6217 83.4474 13.4366C83.3017 13.3038 83.2285 13.0125 83.2285 12.5614V9.95135C83.2285 8.87803 83.8832 8.54672 84.3634 8.54672C84.8582 8.54672 85.1336 8.87803 85.1336 9.57958V13.2515C85.1336 14.232 85.8172 14.8813 87.0526 14.8813C88.419 14.8813 89 13.9805 89 13.7946C89 13.6358 88.7237 13.3175 88.5496 13.3175C88.3461 13.3175 88.0556 13.5561 87.9103 13.5561C87.8082 13.5561 87.7492 13.4896 87.7492 13.2774V9.15514H87.7483V9.15552ZM64.9293 4.23894H62.1388C61.9638 4.23894 61.891 4.23894 61.8487 4.30574C61.7901 4.37139 61.7457 4.7027 61.7457 4.92789C61.7457 5.00767 61.7612 5.06072 61.7897 5.1134C61.891 5.20653 62.2845 5.2989 62.4586 5.45807C62.6035 5.59089 62.6767 5.85579 62.6767 6.86231V12.1636C62.6767 13.0522 62.5754 13.3305 62.4591 13.4362C62.2552 13.6213 61.9069 13.7278 61.8048 13.8202C61.7763 13.8477 61.7612 13.9 61.7612 13.9931C61.7612 14.3374 61.8048 14.6687 61.8625 14.7214C61.9065 14.7611 61.9638 14.7878 62.1535 14.7878H65.8017C65.9905 14.7878 66.0487 14.7611 66.0918 14.7214C66.1505 14.6691 66.2225 14.3374 66.2225 13.9931C66.2225 13.9 66.2086 13.8477 66.1643 13.8202C66.063 13.7278 65.7138 13.6213 65.5246 13.4362C65.3655 13.3034 65.3069 13.0121 65.3069 12.561V12.2568C65.3069 12.0846 65.3655 12.0308 65.6849 11.7396C65.8298 11.6209 65.9604 11.5285 66.0625 11.5285C66.2082 11.5285 66.3238 11.6209 67.9225 14.5626C68.0238 14.7481 68.0677 14.7878 68.3294 14.7878H70.6988C70.8729 14.7878 70.9315 14.7611 70.9751 14.7214C71.0328 14.6691 71.091 14.3374 71.091 13.9931C71.091 13.9 71.0768 13.8477 71.0475 13.8202C70.9457 13.7278 70.3358 13.6614 70.2044 13.4362C68.0975 10.1895 68.0384 10.083 68.0384 9.88455C68.0384 9.71241 68.969 8.86429 69.7389 8.30778C70.2337 7.94975 70.5527 8.18793 70.5527 7.76425C70.5527 7.27378 70.4802 7.10087 70.3781 7.10087H66.8617C66.5561 7.10087 66.5272 7.26004 66.5272 7.85662C66.5272 8.0551 67.1371 8.08182 67.1371 8.35969C67.1371 8.59825 65.6552 9.89753 65.4082 9.89753C65.3203 9.89753 65.3057 9.8441 65.3057 9.6189V4.60956C65.3074 4.39772 65.147 4.23894 64.9289 4.23894" fill="black"></path><path d="M8 0L9.90447 5.70843L16 5.72961L11.0806 9.27854L12.9442 15L8 11.4853L3.05582 14.9996L4.91939 9.27813L0 5.73001L6.09595 5.70884L8.00041 0H8Z" fill="black"></path><path d="M87.4996 2C87.7565 2 88.0037 2.06477 88.2403 2.19388C88.4749 2.32068 88.6679 2.51236 88.7964 2.74599C88.9321 2.98613 89 3.23729 89 3.49946C88.9997 3.76218 88.9307 4.02025 88.7999 4.24809C88.6712 4.48135 88.479 4.67339 88.2456 4.80197C88.0181 4.93175 87.7606 5 87.4987 5C87.2367 5 86.9793 4.93175 86.7518 4.80197C86.5192 4.67226 86.3273 4.48051 86.1974 4.24809C86.0682 4.01988 86.0002 3.76215 86 3.4999C86 3.23729 86.0674 2.98613 86.2018 2.74599C86.3384 2.50584 86.5235 2.32166 86.7597 2.19388C86.9859 2.06722 87.2403 2.00049 87.4996 2ZM87.5018 2.2939C87.2942 2.29403 87.09 2.34711 86.9086 2.44812C86.7192 2.55167 86.5693 2.69928 86.4596 2.89316C86.3541 3.07686 86.2982 3.28488 86.2975 3.49674C86.2968 3.70859 86.3513 3.91698 86.4556 4.10136C86.5623 4.29216 86.7112 4.44065 86.9025 4.54772C87.0845 4.65292 87.2911 4.70831 87.5013 4.70831C87.7116 4.70831 87.9181 4.65292 88.1002 4.54772C88.288 4.44376 88.4428 4.28909 88.547 4.10136C88.6541 3.91057 88.7078 3.71053 88.7078 3.50035C88.7078 3.28884 88.6528 3.08615 88.543 2.89316C88.4397 2.70453 88.2839 2.54994 88.0944 2.44812C87.9132 2.34713 87.7092 2.29405 87.5018 2.2939ZM86.8223 4.30273V2.71074H87.1453C87.4484 2.71074 87.6177 2.71206 87.6542 2.7147C87.7613 2.72351 87.8442 2.74555 87.9028 2.77947C87.966 2.81518 88.0177 2.86823 88.0517 2.93237C88.0924 3.001 88.1135 3.07951 88.1125 3.1593C88.1145 3.26875 88.0737 3.37467 87.9988 3.45452C87.9244 3.53604 87.819 3.58627 87.6838 3.60566C87.7238 3.61973 87.7614 3.64027 87.7948 3.66646C87.8217 3.68761 87.8569 3.72815 87.9028 3.78808C87.9142 3.80394 87.9539 3.86827 88.0204 3.98195L88.2086 4.30317H87.8089L87.6758 4.04496C87.5859 3.87136 87.511 3.76252 87.4524 3.71802C87.388 3.67052 87.3094 3.64643 87.2294 3.64972H87.1457V4.30361L86.8223 4.30273ZM87.1453 3.39812H87.2761C87.463 3.39812 87.5789 3.39063 87.6229 3.37609C87.6656 3.36358 87.7029 3.33756 87.7295 3.30196C87.756 3.26636 87.7703 3.22309 87.7701 3.17869C87.7709 3.13606 87.7569 3.09448 87.7305 3.06104C87.7043 3.0245 87.6663 2.99806 87.6229 2.98613C87.5762 2.97115 87.4603 2.96322 87.2761 2.96322H87.1453V3.39812Z" fill="black"></path></svg>