<svg viewBox="0 0 24 24" focusable="false" class="chakra-icon css-1elkwgi" xmlns="http://www.w3.org/2000/svg"><path d="M12.0001 0C18.6275 0 24 5.37259 24 12C24 18.6275 18.6275 24 12.0001 24C5.37259 24 0 18.6275 0 12C0 5.37259 5.37259 0 12.0001 0ZM12.0001 1.79972C6.36655 1.79972 1.79972 6.36656 1.79972 12C1.79972 17.6335 6.36655 22.2003 12.0001 22.2003C17.6334 22.2003 22.2003 17.6335 22.2003 12C22.2003 6.36656 17.6334 1.79972 12.0001 1.79972ZM11.9956 10.1991C12.4512 10.1989 12.8279 10.5371 12.8878 10.9762L12.8961 11.0984L12.9004 17.6993C12.9008 18.1963 12.4981 18.5994 12.0011 18.5998C11.5456 18.6 11.1688 18.2618 11.109 17.8226L11.1007 17.7005L11.0964 11.0996C11.096 10.6026 11.4987 10.1995 11.9956 10.1991ZM12.0005 6.00246C12.6624 6.00246 13.1988 6.53892 13.1988 7.20067C13.1988 7.86242 12.6624 8.39889 12.0005 8.39889C11.3388 8.39889 10.8023 7.86242 10.8023 7.20067C10.8023 6.53892 11.3388 6.00246 12.0005 6.00246Z" fill="currentColor"></path></svg>