<svg viewBox="0 0 20 20" focusable="false" class="chakra-icon css-me87z0" xmlns="http://www.w3.org/2000/svg"><title>Paradiso Instagram</title><path d="M6.66747 10C6.66747 8.15913 8.15946 6.6664 10.0004 6.6664C11.8414 6.6664 13.3341 8.15913 13.3341 10C13.3341 11.8409 11.8414 13.3336 10.0004 13.3336C8.15946 13.3336 6.66747 11.8409 6.66747 10ZM4.8653 10C4.8653 12.836 7.16426 15.1349 10.0004 15.1349C12.8365 15.1349 15.1355 12.836 15.1355 10C15.1355 7.16397 12.8365 4.8651 10.0004 4.8651C7.16426 4.8651 4.8653 7.16397 4.8653 10ZM14.1387 4.66155C14.1387 5.32391 14.6759 5.86187 15.3391 5.86187C16.0015 5.86187 16.5394 5.32391 16.5394 4.66155C16.5394 3.99919 16.0023 3.46204 15.3391 3.46204C14.6759 3.46204 14.1387 3.99919 14.1387 4.66155ZM5.95985 18.1397C4.98485 18.0953 4.45495 17.933 4.10275 17.7956C3.63585 17.6139 3.30304 17.3974 2.95246 17.0477C2.60269 16.6979 2.3854 16.3651 2.20445 15.8982C2.06713 15.546 1.90476 15.0162 1.86033 14.0412C1.81187 12.9871 1.80217 12.6704 1.80217 10C1.80217 7.32956 1.81267 7.01373 1.86033 5.9588C1.90476 4.98384 2.06793 4.45477 2.20445 4.10178C2.3862 3.63489 2.60269 3.3021 2.95246 2.95153C3.30223 2.60178 3.63504 2.38449 4.10275 2.20355C4.45495 2.06624 4.98485 1.90388 5.95985 1.85945C7.01402 1.81099 7.33067 1.80129 10.0004 1.80129C12.6709 1.80129 12.9868 1.81179 14.0418 1.85945C15.0168 1.90388 15.5459 2.06704 15.8989 2.20355C16.3658 2.38449 16.6986 2.60178 17.0492 2.95153C17.3989 3.30129 17.6154 3.63489 17.7972 4.10178C17.9345 4.45396 18.0969 4.98384 18.1413 5.9588C18.1898 7.01373 18.1994 7.32956 18.1994 10C18.1994 12.6696 18.1898 12.9863 18.1413 14.0412C18.0969 15.0162 17.9337 15.546 17.7972 15.8982C17.6154 16.3651 17.3989 16.6979 17.0492 17.0477C16.6994 17.3974 16.3658 17.6139 15.8989 17.7956C15.5467 17.933 15.0168 18.0953 14.0418 18.1397C12.9876 18.1882 12.6709 18.1979 10.0004 18.1979C7.33067 18.1979 7.01402 18.1882 5.95985 18.1397ZM5.87746 0.0605816C4.8128 0.109047 4.08579 0.277868 3.45006 0.52504C2.79252 0.780291 2.23515 1.12278 1.67858 1.67851C1.12282 2.23425 0.780322 2.7916 0.525062 3.44992C0.277879 4.08562 0.109051 4.8126 0.060584 5.87722C0.011309 6.94346 0 7.28433 0 10C0 12.7157 0.011309 13.0565 0.060584 14.1228C0.109051 15.1874 0.277879 15.9144 0.525062 16.5501C0.780322 17.2076 1.12202 17.7658 1.67858 18.3215C2.23434 18.8772 2.79171 19.2189 3.45006 19.475C4.0866 19.7221 4.8128 19.891 5.87746 19.9394C6.94455 19.9879 7.28462 20 10.0004 20C12.717 20 13.0571 19.9887 14.1234 19.9394C15.188 19.891 15.915 19.7221 16.5507 19.475C17.2083 19.2189 17.7657 18.8772 18.3222 18.3215C18.878 17.7658 19.2197 17.2076 19.4757 16.5501C19.7229 15.9144 19.8926 15.1874 19.9402 14.1228C19.9887 13.0557 20 12.7157 20 10C20 7.28433 19.9887 6.94346 19.9402 5.87722C19.8918 4.8126 19.7229 4.08562 19.4757 3.44992C19.2197 2.79241 18.878 2.23506 18.3222 1.67851C17.7665 1.12278 17.2083 0.780291 16.5516 0.52504C15.915 0.277868 15.188 0.108239 14.1242 0.0605816C13.0579 0.0121163 12.717 0 10.0012 0C7.28462 0 6.94455 0.0113086 5.87746 0.0605816Z" fill="black"></path></svg>