<svg viewBox="0 0 17.377 20" focusable="false" class="chakra-icon css-11vphln" xmlns="http://www.w3.org/2000/svg"><title>Paradiso TikTok</title><path d="M37.128,25.017C38.218,25,39.3,25.01,40.386,25a5.191,5.191,0,0,0,1.458,3.477,5.885,5.885,0,0,0,3.533,1.491v3.356a8.852,8.852,0,0,1-3.5-.807,10.124,10.124,0,0,1-1.351-.775c-.006,2.435.01,4.867-.016,7.292a6.344,6.344,0,0,1-1.127,3.285,6.2,6.2,0,0,1-4.925,2.673,6.064,6.064,0,0,1-3.4-.856,6.28,6.28,0,0,1-3.04-4.76c-.02-.417-.027-.833-.01-1.24a6.28,6.28,0,0,1,7.275-5.57c.017,1.234-.032,2.468-.032,3.7A2.867,2.867,0,0,0,31.6,38.035a3.313,3.313,0,0,0-.113,1.341,2.845,2.845,0,0,0,5.225,1.052,1.965,1.965,0,0,0,.342-.886c.082-1.491.049-2.975.059-4.466.007-3.36-.01-6.71.016-10.059Z" transform="translate(-28 -25)" fill="black"></path></svg>