<svg viewBox="0 0 28.571 20" focusable="false" class="chakra-icon css-khysxj" xmlns="http://www.w3.org/2000/svg"><title>Paradiso YouTube</title><path d="M255.412,7295.694v-8.017c2.846,1.339,5.05,2.633,7.657,4.027-2.15,1.192-4.811,2.53-7.657,3.989m15.861-12a3.708,3.708,0,0,0-2.218-1.317c-2.618-.5-18.953-.5-21.57,0a3.8,3.8,0,0,0-1.9.961c-2.3,2.137-1.581,13.6-1.026,15.453a4.059,4.059,0,0,0,.915,1.764,3.674,3.674,0,0,0,1.93,1c2.156.446,13.262.7,21.6.067a3.74,3.74,0,0,0,1.985-1.016c2.129-2.128,1.984-14.232.279-16.916" transform="translate(-244 -7282)" fill-rule="evenodd" fill="black"></path></svg>